<?xml version="1.0" encoding="utf-8"?>
<!-- Generator: Adobe Illustrator 16.0.0, SVG Export Plug-In . SVG Version: 6.00 Build 0)  -->
<!DOCTYPE svg PUBLIC "-//W3C//DTD SVG 1.0//EN" "http://www.w3.org/TR/2001/REC-SVG-20010904/DTD/svg10.dtd">
<svg version="1.0" id="Layer_1" xmlns="http://www.w3.org/2000/svg" xmlns:xlink="http://www.w3.org/1999/xlink" x="0px" y="0px"
	 width="100px" height="100px" viewBox="0 0 100 100" enable-background="new 0 0 100 100" xml:space="preserve">
<path d="M66.553,46.666H20.114l-0.012,0.105C18.942,59.121,27.813,69.274,40,69.935v13.398l-13.334,3.334V90H60v-3.333
	l-13.333-3.334V69.935c12.188-0.66,21.058-10.813,19.899-23.163L66.553,46.666z"/>
<path d="M65.752,40l-0.01-0.074C73.672,39.531,80,33.031,80,25c0-8.285-6.716-15-15-15c-7.715,0-13.994,5.844-14.833,13.334H22.924
	L20.917,40H65.752z M65,16.666c4.593,0,8.333,3.738,8.333,8.334s-3.74,8.334-8.333,8.334c-0.02,0-0.032-0.008-0.052-0.008
	l-1.205-9.992h-6.907C57.61,19.535,60.977,16.666,65,16.666z"/>
</svg>
